<?xml version="1.0" encoding="iso-8859-1"?>
<!-- Generator: Adobe Illustrator 18.0.0, SVG Export Plug-In . SVG Version: 6.00 Build 0)  -->
<!DOCTYPE svg PUBLIC "-//W3C//DTD SVG 1.1//EN" "http://www.w3.org/Graphics/SVG/1.1/DTD/svg11.dtd">
<svg version="1.1" id="Capa_1" xmlns="http://www.w3.org/2000/svg" xmlns:xlink="http://www.w3.org/1999/xlink" x="0px" y="0px"
	 viewBox="0 0 48.228 48.228" style="enable-background:new 0 0 48.228 48.228;" xml:space="preserve">
<g>
	<path style="fill:#1D1D1B;" d="M38.235,17.678c-0.105-0.06-0.231-0.07-0.364-0.041c0.011-0.054,0.02-0.108,0.03-0.162
		c0.344-0.226,0.44-0.767,0.165-1.1c0.524-4.809-1.503-9.73-5.668-12.437c-0.099-0.065-0.2-0.089-0.3-0.095
		c0.057-0.356,0.061-0.72,0.017-1.087c0.164-0.282,0.14-0.656-0.238-0.848c-3.668-1.867-7.543-2.401-11.555-1.438
		c-0.138,0.033-0.219,0.133-0.259,0.249c-0.29-0.105-0.684,0.058-0.768,0.376c-0.126,0.474-0.072,0.961-0.024,1.444
		c-5.759,1.58-9.452,8.352-9.999,13.971c-0.374,0.044-0.596,0.555-0.19,0.803c0.05,0.03,0.103,0.056,0.155,0.083
		c0.035,0.117,0.11,0.208,0.208,0.273c0.473,9.169,1.678,18.693,3.914,27.594c0.004,0.036,0.013,0.071,0.025,0.107
		c0.01,0.038,0.018,0.077,0.027,0.116c0.087,0.343,0.413,0.491,0.724,0.477c5.936,3.359,13.117,2.898,18.811-0.824
		c0.125-0.082,0.213-0.182,0.278-0.288c0.477,0.124,1.031-0.38,0.75-0.962c-1.378-2.857,1.774-10.215,2.465-13.054
		c1-4.108,1.986-8.222,2.903-12.35C39.501,17.772,38.711,17.387,38.235,17.678z M20.619,2.523c-0.038-0.432-0.061-0.843-0.18-1.245
		c3.513-0.406,6.991,0.073,10.208,1.519c0.095,1.19-0.13,2.209-0.99,3.079c-2.936-1.303-6.015-1.893-9.226-1.564
		c0.004-0.017,0.019-0.027,0.021-0.046c0.025-0.34,0.208-0.575,0.213-0.929C20.669,3.063,20.643,2.794,20.619,2.523z M13.371,9.543
		c1.706-2.477,3.913-3.846,6.213-5.558c0.063,0.117,0.127,0.232,0.163,0.376c0.005,0.02,0.022,0.024,0.029,0.041
		c-0.321,0.155-0.304,0.675,0.128,0.687c3.37,0.087,6.618,0.754,9.663,2.227c0.619,0.299,1.167-0.364,0.99-0.845
		c0.452-0.369,0.823-0.823,1.094-1.33c3.208,2.868,5.133,6.549,5.224,10.765c-8.716-2.437-17.613-2.513-26.289,0.133
		C11.103,13.724,12.019,11.506,13.371,9.543z M36.826,17.406c-0.009,0.106-0.011,0.211-0.022,0.318
		c-0.011,0.109,0.021,0.196,0.069,0.272c-7.77,2.883-18.61,2.247-26.306-1.007C19.378,14.939,28.104,14.956,36.826,17.406z
		 M33.643,35.122c-0.617,2.542-2.1,5.786-1.269,8.412c-0.098,0.019-0.198,0.048-0.3,0.111c-5.402,3.326-11.585,3.609-17.367,1.213
		c-1.17-8.923-2.689-17.874-4.16-26.759c3.85,1.848,8.467,2.364,12.624,2.823c5.042,0.557,9.879,0.304,14.495-1.804
		C36.254,24.434,34.939,29.777,33.643,35.122z"/>
</g>
<g>
</g>
<g>
</g>
<g>
</g>
<g>
</g>
<g>
</g>
<g>
</g>
<g>
</g>
<g>
</g>
<g>
</g>
<g>
</g>
<g>
</g>
<g>
</g>
<g>
</g>
<g>
</g>
<g>
</g>
</svg>
